<svg id="svg" version="1.1" xmlns="http://www.w3.org/2000/svg" xmlns:xlink="http://www.w3.org/1999/xlink" width="400" height="209.33333333333334" viewBox="0, 0, 400,209.33333333333334"><g id="svgg"><path id="path0" d="M201.885 103.453 L 201.885 128.586 207.330 128.586 L 212.775 128.586 212.775 112.042 C 212.775 101.152,212.846 95.497,212.984 95.497 C 213.099 95.497,213.194 95.733,213.194 96.021 C 213.194 96.309,213.277 96.545,213.379 96.545 C 213.481 96.545,213.628 96.966,213.706 97.482 C 213.783 97.998,213.924 98.468,214.020 98.527 C 214.115 98.586,214.258 98.977,214.336 99.395 C 214.415 99.814,214.567 100.333,214.674 100.549 C 214.781 100.766,214.957 101.119,215.064 101.335 C 215.172 101.552,215.324 102.071,215.402 102.490 C 215.481 102.908,215.620 103.297,215.712 103.354 C 215.804 103.411,215.943 103.834,216.021 104.294 C 216.099 104.754,216.238 105.131,216.330 105.131 C 216.422 105.131,216.560 105.553,216.638 106.068 C 216.715 106.584,216.867 107.061,216.975 107.128 C 217.084 107.195,217.173 107.480,217.173 107.761 C 217.173 108.042,217.261 108.272,217.369 108.272 C 217.477 108.272,217.630 108.696,217.707 109.215 C 217.785 109.733,217.932 110.157,218.034 110.157 C 218.136 110.157,218.220 110.355,218.220 110.597 C 218.220 110.992,218.582 111.988,219.061 112.906 C 219.158 113.094,219.303 113.589,219.381 114.008 C 219.460 114.427,219.602 114.817,219.698 114.876 C 219.793 114.935,219.934 115.405,220.012 115.921 C 220.089 116.437,220.236 116.859,220.338 116.859 C 220.440 116.859,220.524 117.094,220.524 117.382 C 220.524 117.670,220.612 117.906,220.720 117.906 C 220.828 117.906,220.980 118.330,221.058 118.848 C 221.136 119.366,221.283 119.791,221.385 119.791 C 221.487 119.791,221.571 120.003,221.572 120.262 C 221.573 120.521,221.714 121.003,221.886 121.333 C 222.058 121.663,222.199 122.063,222.199 122.223 C 222.199 122.383,222.284 122.513,222.389 122.513 C 222.493 122.513,222.643 122.984,222.723 123.560 C 222.802 124.136,222.946 124.607,223.043 124.607 C 223.141 124.607,223.284 125.031,223.362 125.550 C 223.439 126.068,223.574 126.492,223.661 126.492 C 223.748 126.492,223.874 126.830,223.942 127.244 C 224.162 128.603,224.101 128.586,228.941 128.586 C 233.751 128.586,233.759 128.585,234.030 127.318 C 234.115 126.921,234.257 126.503,234.346 126.387 C 234.434 126.272,234.577 125.851,234.662 125.452 C 234.748 125.053,234.900 124.558,235.000 124.352 C 235.101 124.147,235.276 123.795,235.389 123.569 C 235.502 123.344,235.655 122.779,235.730 122.313 C 235.804 121.847,235.941 121.466,236.035 121.466 C 236.128 121.466,236.268 121.042,236.346 120.524 C 236.424 120.005,236.559 119.581,236.646 119.581 C 236.734 119.581,236.866 119.200,236.941 118.734 C 237.015 118.269,237.160 117.727,237.264 117.530 C 237.746 116.614,238.115 115.604,238.115 115.204 C 238.115 114.962,238.204 114.764,238.312 114.764 C 238.420 114.764,238.572 114.340,238.650 113.822 C 238.727 113.304,238.875 112.880,238.977 112.880 C 239.079 112.880,239.162 112.644,239.162 112.356 C 239.162 112.068,239.246 111.832,239.348 111.832 C 239.450 111.832,239.597 111.411,239.674 110.895 C 239.752 110.379,239.898 109.906,240.000 109.843 C 240.102 109.780,240.248 109.307,240.326 108.791 C 240.403 108.275,240.550 107.853,240.652 107.853 C 240.754 107.853,240.838 107.618,240.838 107.330 C 240.838 107.042,240.924 106.806,241.029 106.806 C 241.134 106.806,241.283 106.430,241.361 105.970 C 241.439 105.510,241.578 105.087,241.670 105.030 C 241.762 104.973,241.904 104.572,241.985 104.138 C 242.065 103.705,242.200 103.257,242.284 103.141 C 242.368 103.026,242.615 102.366,242.833 101.675 C 243.051 100.984,243.300 100.320,243.386 100.199 C 243.471 100.078,243.605 99.583,243.683 99.100 C 243.760 98.616,243.897 98.220,243.986 98.220 C 244.076 98.220,244.214 97.749,244.293 97.173 C 244.372 96.597,244.523 96.126,244.627 96.126 C 244.731 96.126,244.817 95.943,244.817 95.719 C 244.817 95.496,244.911 95.254,245.026 95.183 C 245.165 95.097,245.236 100.696,245.236 111.820 L 245.236 128.586 250.681 128.586 L 256.126 128.586 256.126 103.453 L 256.126 78.320 247.906 78.375 L 239.686 78.429 239.620 79.005 C 239.583 79.322,239.474 79.581,239.377 79.581 C 239.281 79.581,239.137 80.052,239.058 80.628 C 238.978 81.204,238.849 81.675,238.770 81.675 C 238.605 81.675,237.906 83.928,237.906 84.461 C 237.906 84.656,237.820 84.817,237.716 84.817 C 237.612 84.817,237.461 85.288,237.382 85.864 C 237.303 86.440,237.153 86.911,237.048 86.911 C 236.944 86.911,236.859 87.147,236.859 87.435 C 236.859 87.723,236.775 87.958,236.673 87.958 C 236.571 87.958,236.424 88.380,236.347 88.896 C 236.269 89.411,236.123 89.885,236.021 89.948 C 235.919 90.011,235.772 90.484,235.695 91.000 C 235.618 91.515,235.471 91.937,235.369 91.937 C 235.267 91.937,235.183 92.167,235.183 92.448 C 235.183 92.730,235.098 93.012,234.993 93.077 C 234.889 93.141,234.739 93.665,234.660 94.241 C 234.580 94.817,234.436 95.288,234.339 95.288 C 234.241 95.288,234.098 95.712,234.020 96.230 C 233.943 96.749,233.796 97.173,233.693 97.173 C 233.591 97.173,233.508 97.403,233.508 97.684 C 233.508 97.965,233.419 98.250,233.311 98.317 C 233.202 98.384,233.050 98.861,232.973 99.377 C 232.895 99.892,232.757 100.314,232.666 100.314 C 232.575 100.314,232.435 100.785,232.356 101.361 C 232.277 101.937,232.138 102.454,232.046 102.510 C 231.955 102.567,231.817 103.038,231.739 103.558 C 231.661 104.077,231.509 104.503,231.401 104.503 C 231.293 104.503,231.204 104.738,231.204 105.026 C 231.204 105.314,231.119 105.550,231.014 105.550 C 230.910 105.550,230.760 106.021,230.681 106.597 C 230.601 107.173,230.462 107.644,230.371 107.644 C 230.279 107.644,230.141 108.066,230.064 108.582 C 229.987 109.097,229.835 109.574,229.726 109.641 C 229.618 109.708,229.529 109.987,229.529 110.262 C 229.529 111.069,229.143 111.071,228.992 110.265 C 228.916 109.858,228.769 109.473,228.667 109.409 C 228.565 109.346,228.482 109.065,228.482 108.783 C 228.482 108.502,228.398 108.272,228.296 108.272 C 228.194 108.272,228.047 107.848,227.969 107.330 C 227.891 106.812,227.750 106.387,227.655 106.387 C 227.560 106.387,227.419 105.966,227.342 105.450 C 227.264 104.934,227.123 104.464,227.027 104.405 C 226.932 104.346,226.790 103.955,226.711 103.537 C 226.632 103.118,226.480 102.599,226.373 102.383 C 226.266 102.166,226.086 101.805,225.973 101.580 C 225.860 101.354,225.706 100.789,225.632 100.323 C 225.557 99.858,225.420 99.476,225.326 99.476 C 225.233 99.476,225.093 99.052,225.015 98.534 C 224.938 98.016,224.790 97.592,224.688 97.592 C 224.586 97.592,224.503 97.356,224.503 97.068 C 224.503 96.780,224.419 96.545,224.317 96.545 C 224.215 96.545,224.068 96.120,223.990 95.602 C 223.912 95.084,223.769 94.660,223.672 94.660 C 223.574 94.660,223.430 94.188,223.351 93.613 C 223.272 93.037,223.121 92.565,223.017 92.565 C 222.913 92.565,222.827 92.330,222.827 92.042 C 222.827 91.754,222.744 91.518,222.642 91.518 C 222.539 91.518,222.392 91.094,222.315 90.576 C 222.237 90.058,222.094 89.634,221.996 89.634 C 221.899 89.634,221.755 89.162,221.675 88.586 C 221.596 88.010,221.446 87.539,221.342 87.539 C 221.237 87.539,221.152 87.304,221.152 87.016 C 221.152 86.728,221.063 86.492,220.955 86.492 C 220.847 86.492,220.695 86.068,220.617 85.550 C 220.540 85.031,220.401 84.607,220.310 84.607 C 220.219 84.607,220.079 84.136,220.000 83.560 C 219.921 82.984,219.779 82.513,219.685 82.513 C 219.590 82.513,219.450 82.137,219.372 81.676 C 219.294 81.216,219.145 80.787,219.039 80.722 C 218.934 80.657,218.848 80.374,218.848 80.092 C 218.848 79.811,218.760 79.581,218.653 79.581 C 218.545 79.581,218.427 79.322,218.391 79.005 L 218.325 78.429 210.105 78.375 L 201.885 78.320 201.885 103.453 M344.223 79.721 C 344.147 79.798,344.084 82.342,344.084 85.375 L 344.084 90.890 341.152 90.890 L 338.220 90.890 338.220 94.555 L 338.220 98.220 341.148 98.220 L 344.075 98.220 344.165 107.696 C 344.252 116.909,344.372 119.673,344.703 120.105 C 344.792 120.220,344.923 120.702,344.996 121.176 C 345.068 121.651,345.269 122.310,345.442 122.642 C 345.615 122.974,345.758 123.340,345.761 123.455 C 345.771 123.981,348.741 127.120,349.229 127.120 C 349.394 127.120,349.529 127.192,349.529 127.280 C 349.529 127.490,351.098 128.168,351.583 128.168 C 351.789 128.168,352.074 128.284,352.216 128.426 C 352.521 128.730,359.010 128.928,361.157 128.698 L 362.513 128.553 362.513 124.329 L 362.513 120.105 359.861 120.105 C 357.925 120.105,357.185 120.034,357.121 119.843 C 357.073 119.699,356.916 119.581,356.774 119.581 C 356.429 119.581,355.602 117.902,355.602 117.202 C 355.602 116.898,355.508 116.649,355.393 116.649 C 355.256 116.649,355.183 113.438,355.183 107.435 L 355.183 98.220 358.848 98.220 L 362.513 98.220 362.513 94.555 L 362.513 90.890 358.848 90.890 L 355.183 90.890 355.183 85.236 L 355.183 79.581 349.773 79.581 C 346.798 79.581,344.300 79.644,344.223 79.721 M278.334 89.775 C 277.475 89.823,276.674 89.942,276.554 90.039 C 276.434 90.136,275.746 90.282,275.026 90.364 C 274.306 90.446,273.664 90.597,273.600 90.701 C 273.536 90.805,273.253 90.890,272.972 90.890 C 272.691 90.890,272.461 90.984,272.461 91.099 C 272.461 91.215,272.293 91.309,272.088 91.309 C 271.705 91.309,269.566 92.351,268.981 92.823 C 267.450 94.059,265.818 95.925,265.637 96.646 C 265.564 96.936,265.424 97.173,265.325 97.173 C 265.226 97.173,265.083 97.646,265.006 98.225 C 264.929 98.803,264.784 99.327,264.684 99.389 C 264.584 99.451,264.503 99.967,264.503 100.536 L 264.503 101.571 269.808 101.571 C 275.745 101.571,275.339 101.679,275.706 100.006 C 275.885 99.192,277.358 97.844,278.253 97.676 C 278.640 97.604,279.009 97.461,279.072 97.358 C 279.221 97.118,283.560 97.115,283.560 97.355 C 283.560 97.455,283.885 97.590,284.282 97.654 C 285.030 97.775,286.492 99.051,286.492 99.582 C 286.492 99.735,286.585 99.892,286.698 99.930 C 286.907 100.001,287.278 101.860,287.469 103.792 L 287.575 104.861 281.680 104.967 C 277.688 105.039,275.708 105.150,275.547 105.312 C 275.416 105.443,274.956 105.550,274.525 105.550 C 274.095 105.550,273.692 105.631,273.631 105.730 C 273.569 105.829,273.079 105.970,272.540 106.044 C 272.001 106.118,271.457 106.259,271.330 106.357 C 271.203 106.455,270.605 106.709,270.000 106.921 C 269.395 107.134,268.901 107.377,268.901 107.462 C 268.901 107.546,268.702 107.679,268.459 107.756 C 267.603 108.028,265.266 110.241,265.021 111.011 C 264.938 111.272,264.694 111.675,264.480 111.905 C 264.265 112.136,264.028 112.662,263.954 113.073 C 263.880 113.485,263.726 113.939,263.613 114.083 C 263.346 114.419,263.348 120.347,263.615 120.687 C 263.725 120.827,263.878 121.272,263.955 121.674 C 264.125 122.571,264.549 123.560,264.763 123.560 C 264.850 123.560,264.921 123.687,264.921 123.842 C 264.921 123.997,265.118 124.351,265.358 124.628 C 265.599 124.904,266.032 125.427,266.321 125.789 C 266.610 126.151,267.167 126.620,267.559 126.832 C 267.951 127.043,268.272 127.288,268.272 127.377 C 268.272 127.466,268.414 127.539,268.586 127.539 C 268.759 127.539,268.901 127.626,268.901 127.732 C 268.901 127.838,269.207 127.990,269.581 128.070 C 269.955 128.150,270.370 128.303,270.501 128.408 C 270.633 128.514,271.222 128.658,271.810 128.728 C 272.398 128.797,272.880 128.935,272.880 129.034 C 272.880 129.281,279.916 129.264,280.369 129.016 C 280.569 128.907,281.181 128.760,281.728 128.689 C 282.275 128.618,282.723 128.483,282.723 128.387 C 282.723 128.292,283.052 128.152,283.455 128.077 C 283.859 128.001,284.188 127.849,284.188 127.739 C 284.188 127.629,284.330 127.539,284.503 127.539 C 284.675 127.539,284.817 127.451,284.817 127.344 C 284.817 127.237,284.983 127.096,285.186 127.031 C 285.779 126.843,287.470 125.178,287.648 124.607 C 287.894 123.817,288.134 124.584,288.153 126.218 C 288.161 126.931,288.262 127.573,288.377 127.644 C 288.492 127.715,288.586 127.958,288.586 128.184 C 288.586 128.581,288.739 128.592,293.351 128.538 L 298.115 128.482 298.172 114.660 C 298.206 106.229,298.150 100.674,298.029 100.419 C 297.919 100.188,297.771 99.555,297.699 99.010 C 297.626 98.466,297.479 97.965,297.370 97.898 C 297.262 97.831,297.173 97.593,297.173 97.370 C 297.173 97.146,297.079 96.963,296.963 96.963 C 296.848 96.963,296.754 96.810,296.754 96.622 C 296.754 95.301,292.592 91.309,291.215 91.309 C 291.036 91.309,290.890 91.215,290.890 91.099 C 290.890 90.984,290.720 90.890,290.513 90.890 C 290.306 90.890,290.045 90.799,289.934 90.688 C 289.823 90.577,289.168 90.422,288.479 90.342 C 287.789 90.263,287.175 90.123,287.114 90.030 C 286.984 89.833,280.598 89.647,278.334 89.775 M324.729 90.025 C 324.667 90.125,324.238 90.267,323.774 90.341 C 323.311 90.416,322.932 90.569,322.932 90.683 C 322.932 90.797,322.743 90.890,322.513 90.890 C 322.283 90.890,322.094 90.984,322.094 91.099 C 322.094 91.215,321.996 91.309,321.876 91.309 C 321.128 91.309,318.420 94.006,317.631 95.536 L 317.068 96.629 317.068 93.760 L 317.068 90.890 311.937 90.890 L 306.806 90.890 306.806 109.529 L 306.806 128.168 312.142 128.168 L 317.478 128.168 317.556 119.110 C 317.628 110.588,317.851 106.901,318.313 106.598 C 318.401 106.540,318.539 106.139,318.618 105.707 C 318.697 105.275,318.829 104.921,318.911 104.921 C 318.993 104.921,319.187 104.634,319.343 104.282 C 319.662 103.562,321.493 101.571,321.836 101.571 C 321.959 101.571,322.091 101.500,322.129 101.414 C 322.281 101.071,323.701 100.487,324.656 100.374 C 325.212 100.308,325.717 100.174,325.778 100.075 C 325.939 99.813,329.299 99.854,329.566 100.121 C 329.690 100.245,330.063 100.316,330.393 100.278 L 330.995 100.209 331.051 95.314 C 331.091 91.879,331.036 90.333,330.868 90.131 C 330.594 89.801,324.928 89.703,324.729 90.025 M287.539 112.987 C 287.539 113.737,287.450 114.515,287.341 114.715 C 287.231 114.915,287.084 115.526,287.014 116.073 C 286.943 116.620,286.807 117.068,286.711 117.068 C 286.616 117.068,286.482 117.290,286.414 117.560 C 286.271 118.132,284.545 119.925,283.959 120.111 C 283.740 120.181,283.560 120.317,283.560 120.413 C 283.560 120.510,283.089 120.654,282.513 120.733 C 281.938 120.812,281.414 120.962,281.349 121.067 C 281.199 121.310,278.115 121.317,278.115 121.074 C 278.115 120.973,277.738 120.831,277.277 120.757 C 276.817 120.684,276.440 120.530,276.440 120.416 C 276.440 120.303,276.319 120.209,276.172 120.209 C 275.872 120.209,275.183 119.479,275.183 119.160 C 275.183 119.046,275.093 118.953,274.983 118.953 C 274.873 118.953,274.725 118.599,274.654 118.168 C 274.583 117.736,274.423 117.173,274.299 116.918 C 274.142 116.597,274.140 116.371,274.290 116.185 C 274.410 116.037,274.574 115.516,274.654 115.026 C 274.735 114.537,274.864 114.136,274.940 114.135 C 275.016 114.135,275.380 113.852,275.748 113.507 C 276.116 113.162,276.516 112.880,276.638 112.880 C 276.759 112.880,276.859 112.791,276.859 112.683 C 276.859 112.575,277.283 112.423,277.801 112.345 C 278.319 112.267,278.743 112.125,278.743 112.029 C 278.743 111.804,280.153 111.710,284.241 111.662 L 287.539 111.623 287.539 112.987 " stroke="none" fill="#040404" fill-rule="evenodd"></path><path id="path1" d="M113.508 68.049 C 107.840 68.769,104.753 73.507,106.483 78.832 C 108.815 86.007,121.740 86.063,124.211 78.909 C 126.446 72.438,121.163 67.076,113.508 68.049 M86.702 75.640 C 86.414 75.760,85.817 76.007,85.376 76.189 C 84.459 76.566,83.041 78.076,82.590 79.158 C 81.831 80.973,81.808 81.449,81.684 98.220 C 81.547 116.686,81.595 116.075,80.129 117.997 C 76.951 122.164,68.939 121.325,63.814 116.287 L 62.603 115.096 61.825 115.505 C 57.088 117.998,55.357 124.960,58.349 129.478 C 60.958 133.417,66.184 135.475,74.465 135.826 C 89.539 136.464,97.404 130.654,99.714 117.173 C 100.029 115.336,100.204 84.634,99.914 82.173 C 99.483 78.520,98.048 76.584,95.109 75.692 C 93.944 75.339,87.518 75.299,86.702 75.640 M150.995 88.809 C 139.183 89.765,130.991 97.198,129.328 108.466 C 127.565 120.407,133.484 130.837,144.065 134.435 C 149.116 136.153,156.892 136.330,162.199 134.847 C 172.589 131.945,178.630 123.686,178.637 112.372 C 178.645 98.967,170.100 89.753,156.759 88.782 C 153.964 88.579,153.818 88.580,150.995 88.809 M112.356 89.304 C 109.014 89.991,107.367 91.713,106.818 95.097 C 106.522 96.920,106.522 127.372,106.818 129.196 C 107.507 133.443,109.913 135.081,115.455 135.076 C 120.430 135.072,122.528 133.761,123.663 129.948 C 124.216 128.089,124.124 95.715,123.560 93.823 C 122.384 89.872,118.067 88.132,112.356 89.304 M157.188 102.309 C 163.339 104.768,165.697 111.507,162.561 117.666 C 159.146 124.371,148.370 124.235,145.078 117.444 C 141.943 110.976,145.329 103.157,151.773 101.984 C 153.163 101.731,156.198 101.913,157.188 102.309 " stroke="none" fill="#fafbfa" fill-rule="evenodd"></path><path id="path2" d="M108.482 27.408 C 108.482 27.506,107.987 27.566,107.382 27.542 C 106.777 27.518,106.195 27.548,106.088 27.607 C 105.981 27.667,105.421 27.750,104.844 27.792 C 104.267 27.834,103.680 27.963,103.541 28.079 C 103.366 28.224,103.253 28.206,103.178 28.019 C 103.095 27.812,103.066 27.810,103.053 28.010 C 103.042 28.183,102.679 28.272,101.990 28.272 C 101.414 28.272,100.942 28.343,100.942 28.429 C 100.942 28.516,100.516 28.569,99.996 28.547 C 99.449 28.524,99.100 28.590,99.170 28.704 C 99.238 28.814,98.918 28.901,98.442 28.901 C 97.974 28.901,97.592 28.985,97.592 29.089 C 97.592 29.193,97.303 29.258,96.951 29.233 C 96.599 29.209,96.264 29.265,96.206 29.359 C 96.148 29.452,95.876 29.529,95.602 29.529 C 95.328 29.529,95.052 29.612,94.989 29.714 C 94.926 29.816,94.614 29.947,94.296 30.005 C 93.978 30.063,93.028 30.312,92.186 30.557 C 91.344 30.803,90.552 30.940,90.426 30.862 C 90.289 30.777,90.257 30.818,90.346 30.962 C 90.439 31.112,90.348 31.204,90.107 31.204 C 89.892 31.204,89.628 31.293,89.518 31.401 C 89.409 31.509,89.071 31.630,88.767 31.670 C 88.463 31.710,88.086 31.844,87.929 31.968 C 87.772 32.091,87.330 32.252,86.946 32.325 C 86.562 32.398,85.982 32.647,85.657 32.878 C 85.332 33.109,84.907 33.298,84.711 33.298 C 84.333 33.298,82.898 33.914,82.723 34.151 C 82.665 34.229,82.312 34.359,81.937 34.441 C 81.563 34.522,81.257 34.675,81.257 34.781 C 81.257 34.887,81.186 34.963,81.099 34.949 C 81.013 34.935,80.872 34.947,80.785 34.975 C 80.470 35.077,80.202 35.131,79.883 35.157 C 79.703 35.171,79.615 35.277,79.686 35.393 C 79.757 35.508,79.680 35.602,79.514 35.602 C 79.349 35.602,79.096 35.743,78.953 35.916 C 78.809 36.089,78.468 36.230,78.194 36.230 C 77.920 36.230,77.696 36.312,77.696 36.411 C 77.696 36.510,77.225 36.815,76.649 37.089 C 76.073 37.362,75.602 37.658,75.602 37.746 C 75.602 37.834,75.426 37.906,75.212 37.906 C 74.997 37.906,74.557 38.165,74.233 38.482 C 73.910 38.798,73.723 38.925,73.818 38.764 C 73.913 38.602,73.553 38.771,73.017 39.140 C 72.481 39.509,72.039 39.735,72.036 39.644 C 72.032 39.552,71.933 39.641,71.816 39.843 C 71.698 40.045,71.466 40.209,71.298 40.209 C 71.131 40.209,70.995 40.282,70.995 40.371 C 70.995 40.460,70.661 40.713,70.254 40.932 C 69.846 41.151,69.235 41.597,68.895 41.922 C 68.554 42.247,68.134 42.513,67.960 42.513 C 67.786 42.513,67.668 42.618,67.696 42.747 C 67.725 42.876,67.594 43.007,67.405 43.039 C 67.216 43.071,66.768 43.404,66.410 43.779 C 66.052 44.153,65.759 44.385,65.759 44.292 C 65.759 44.200,65.585 44.326,65.371 44.571 C 65.158 44.817,64.931 44.966,64.867 44.902 C 64.803 44.838,64.688 44.982,64.611 45.223 C 64.535 45.464,64.389 45.609,64.287 45.546 C 64.185 45.483,63.829 45.716,63.496 46.064 C 63.164 46.412,62.830 46.635,62.755 46.559 C 62.629 46.434,62.534 46.796,62.593 47.173 C 62.607 47.259,62.541 47.306,62.448 47.277 C 62.354 47.249,61.830 47.649,61.283 48.168 C 58.873 50.450,56.020 53.275,56.013 53.386 C 56.002 53.556,55.174 54.495,53.822 55.869 C 53.188 56.513,52.812 56.968,52.984 56.881 C 53.168 56.788,53.147 56.847,52.932 57.023 C 52.730 57.188,52.565 57.431,52.565 57.562 C 52.565 57.694,52.424 57.801,52.251 57.801 C 51.963 57.801,51.841 58.058,51.918 58.500 C 51.935 58.596,51.759 58.725,51.527 58.785 C 51.294 58.846,51.156 58.979,51.219 59.081 C 51.282 59.183,51.228 59.267,51.099 59.267 C 50.971 59.267,50.913 59.344,50.972 59.439 C 51.030 59.534,50.918 59.754,50.722 59.929 C 50.223 60.374,49.405 61.361,49.535 61.361 C 49.700 61.361,48.960 62.468,48.539 62.852 C 48.335 63.038,48.168 63.330,48.168 63.500 C 48.168 63.670,47.978 63.981,47.747 64.190 C 47.279 64.614,46.702 65.671,46.702 66.105 C 46.702 66.261,46.607 66.387,46.492 66.387 C 46.377 66.387,46.283 66.529,46.283 66.702 C 46.283 66.874,46.173 67.016,46.038 67.016 C 45.904 67.016,45.854 67.075,45.927 67.148 C 46.000 67.221,45.874 67.517,45.648 67.805 C 45.421 68.093,45.236 68.463,45.236 68.627 C 45.236 68.791,45.149 68.872,45.043 68.806 C 44.937 68.741,44.789 68.971,44.712 69.318 C 44.636 69.664,44.487 69.948,44.381 69.948 C 44.275 69.948,44.208 70.018,44.232 70.105 C 44.299 70.344,43.535 71.832,43.345 71.832 C 43.253 71.832,43.114 72.209,43.037 72.670 C 42.959 73.131,42.809 73.508,42.704 73.508 C 42.599 73.508,42.513 73.649,42.513 73.822 C 42.513 73.995,42.429 74.136,42.326 74.136 C 42.223 74.136,42.083 74.282,42.014 74.461 C 41.938 74.660,41.976 74.733,42.112 74.649 C 42.316 74.523,42.180 74.859,41.642 75.812 C 41.462 76.131,41.006 77.087,40.943 77.277 C 40.924 77.335,40.832 77.665,40.739 78.010 C 40.647 78.356,40.497 78.733,40.408 78.848 C 40.235 79.071,40.209 79.180,40.209 79.698 C 40.209 79.878,40.127 79.974,40.026 79.911 C 39.925 79.849,39.843 80.022,39.843 80.296 C 39.843 80.570,39.695 81.091,39.514 81.453 C 39.333 81.816,39.122 82.533,39.045 83.046 C 38.968 83.559,38.842 83.979,38.765 83.979 C 38.688 83.979,38.604 84.233,38.579 84.543 C 38.553 84.854,38.452 85.160,38.355 85.224 C 38.258 85.288,38.195 85.548,38.216 85.802 C 38.236 86.056,38.175 86.215,38.079 86.156 C 37.984 86.097,37.906 86.385,37.906 86.797 C 37.906 87.208,37.816 87.709,37.707 87.909 C 37.598 88.109,37.451 88.720,37.380 89.267 C 37.310 89.814,37.163 90.262,37.055 90.262 C 36.947 90.262,36.859 90.362,36.859 90.484 C 36.859 90.606,36.976 90.635,37.120 90.548 C 37.323 90.426,37.327 90.459,37.140 90.693 C 37.007 90.859,36.872 91.372,36.840 91.832 C 36.808 92.293,36.731 92.764,36.669 92.880 C 36.607 92.995,36.523 93.277,36.482 93.508 C 36.441 93.738,36.374 94.068,36.335 94.241 C 36.295 94.414,36.255 95.008,36.246 95.562 C 36.238 96.116,36.158 96.524,36.069 96.470 C 35.981 96.415,35.912 97.187,35.916 98.185 C 35.919 99.183,35.843 100.113,35.746 100.251 C 35.648 100.389,35.616 103.688,35.675 107.581 C 35.802 116.034,35.818 116.461,36.001 116.347 C 36.079 116.299,36.157 116.443,36.174 116.668 C 36.194 116.933,36.117 117.024,35.956 116.928 C 35.767 116.814,35.765 116.851,35.946 117.080 C 36.077 117.246,36.243 117.948,36.315 118.639 C 36.386 119.330,36.476 120.037,36.516 120.209 C 36.827 121.581,36.933 122.248,36.890 122.547 C 36.862 122.738,36.931 122.952,37.043 123.021 C 37.156 123.091,37.313 123.665,37.392 124.296 C 37.471 124.928,37.606 125.445,37.692 125.445 C 37.778 125.445,37.908 125.951,37.980 126.570 C 38.053 127.189,38.250 127.960,38.417 128.283 C 38.585 128.606,38.674 128.948,38.616 129.043 C 38.557 129.137,38.633 129.216,38.783 129.218 C 38.983 129.220,38.972 129.277,38.743 129.424 C 38.534 129.559,38.517 129.628,38.691 129.630 C 38.835 129.632,38.953 129.769,38.953 129.934 C 38.953 130.099,39.062 130.500,39.195 130.824 C 39.457 131.462,39.501 131.633,39.549 132.211 C 39.569 132.443,39.676 132.531,39.826 132.439 C 39.990 132.337,40.028 132.401,39.939 132.631 C 39.867 132.820,39.941 133.294,40.105 133.686 C 40.268 134.077,40.343 134.456,40.271 134.528 C 40.199 134.601,40.239 134.660,40.360 134.660 C 40.480 134.660,40.648 134.872,40.733 135.131 C 40.817 135.390,40.907 135.649,40.932 135.707 C 40.958 135.764,41.051 136.000,41.140 136.230 C 41.229 136.461,41.497 137.073,41.736 137.592 C 41.975 138.110,42.187 138.628,42.207 138.743 C 42.295 139.247,42.574 139.895,42.702 139.895 C 42.780 139.895,42.859 140.106,42.878 140.362 C 42.897 140.619,43.059 140.936,43.237 141.066 C 43.415 141.196,43.560 141.452,43.560 141.634 C 43.560 141.816,43.659 142.026,43.781 142.101 C 43.902 142.176,43.965 142.344,43.922 142.475 C 43.878 142.606,43.991 142.874,44.173 143.070 C 44.469 143.391,44.967 144.278,45.328 145.131 C 45.590 145.748,46.007 146.383,46.094 146.297 C 46.143 146.248,46.290 146.437,46.422 146.717 C 46.604 147.101,46.603 147.191,46.420 147.085 C 46.287 147.007,46.362 147.153,46.586 147.409 C 46.810 147.664,47.017 148.034,47.046 148.230 C 47.074 148.426,47.291 148.716,47.528 148.874 C 47.764 149.032,47.958 149.287,47.958 149.441 C 47.958 149.596,48.139 149.890,48.360 150.097 C 48.581 150.303,48.793 150.605,48.831 150.768 C 48.869 150.931,49.069 151.241,49.275 151.456 C 49.480 151.672,49.593 151.939,49.524 152.050 C 49.455 152.161,49.499 152.251,49.621 152.251 C 49.743 152.251,49.844 152.416,49.846 152.618 C 49.849 152.931,49.879 152.939,50.052 152.670 C 50.232 152.391,50.256 152.392,50.259 152.672 C 50.260 152.846,50.481 153.225,50.749 153.514 C 51.017 153.803,51.198 154.156,51.150 154.297 C 51.103 154.439,51.152 154.555,51.259 154.555 C 51.556 154.555,52.366 155.313,52.222 155.457 C 52.153 155.526,52.451 155.917,52.884 156.325 C 53.317 156.734,53.590 157.068,53.491 157.068 C 53.391 157.068,53.519 157.215,53.775 157.394 C 54.031 157.573,54.241 157.846,54.241 158.000 C 54.241 158.154,54.382 158.334,54.555 158.400 C 54.728 158.467,54.869 158.671,54.869 158.854 C 54.869 159.037,54.963 159.129,55.079 159.058 C 55.194 158.986,55.288 159.032,55.288 159.158 C 55.288 159.285,55.664 159.747,56.124 160.184 C 56.584 160.622,56.899 161.042,56.822 161.118 C 56.746 161.194,56.834 161.257,57.018 161.257 C 57.201 161.257,57.632 161.597,57.976 162.013 C 58.319 162.430,59.043 163.136,59.584 163.584 C 60.126 164.032,60.441 164.399,60.285 164.401 C 60.059 164.404,60.063 164.444,60.304 164.597 C 60.471 164.703,60.683 164.743,60.775 164.686 C 60.867 164.629,60.942 164.678,60.942 164.794 C 60.942 164.910,61.193 165.269,61.500 165.591 C 61.807 165.914,61.977 166.037,61.879 165.864 C 61.725 165.594,61.749 165.590,62.052 165.835 C 62.245 165.992,62.351 166.207,62.286 166.312 C 62.221 166.417,62.246 166.478,62.340 166.448 C 62.619 166.360,63.874 167.382,63.874 167.696 C 63.874 167.854,63.969 167.925,64.084 167.853 C 64.199 167.782,64.293 167.824,64.293 167.946 C 64.293 168.068,64.392 168.168,64.513 168.168 C 64.633 168.168,64.950 168.403,65.217 168.691 C 65.484 168.979,65.809 169.215,65.940 169.215 C 66.071 169.215,66.178 169.314,66.178 169.436 C 66.178 169.558,66.262 169.607,66.364 169.543 C 66.612 169.390,67.054 169.940,66.857 170.158 C 66.771 170.252,66.797 170.275,66.915 170.208 C 67.187 170.054,68.734 171.196,68.530 171.400 C 68.446 171.484,68.471 171.534,68.586 171.511 C 69.058 171.416,69.336 171.532,69.193 171.763 C 69.094 171.923,69.151 171.966,69.355 171.888 C 69.539 171.817,69.946 172.025,70.332 172.386 C 70.697 172.727,70.995 172.937,70.995 172.854 C 70.995 172.770,71.207 172.886,71.466 173.111 C 72.375 173.901,73.894 174.869,74.223 174.869 C 74.405 174.869,74.555 174.952,74.555 175.053 C 74.555 175.154,74.838 175.354,75.183 175.497 C 75.529 175.641,75.812 175.846,75.812 175.954 C 75.812 176.062,75.906 176.092,76.022 176.020 C 76.138 175.948,76.290 176.037,76.359 176.217 C 76.428 176.397,76.613 176.545,76.769 176.545 C 77.024 176.545,77.735 176.818,79.103 177.443 C 79.358 177.559,79.518 177.734,79.458 177.830 C 79.399 177.927,79.496 177.950,79.675 177.881 C 79.854 177.812,80.000 177.861,80.000 177.988 C 80.000 178.116,80.181 178.220,80.401 178.220 C 80.622 178.220,80.834 178.294,80.873 178.385 C 80.959 178.590,83.089 179.476,83.496 179.476 C 83.660 179.476,83.736 179.571,83.665 179.686 C 83.594 179.801,83.699 179.895,83.898 179.895 C 84.097 179.895,84.433 180.051,84.643 180.242 C 84.948 180.518,85.027 180.528,85.029 180.294 C 85.031 180.114,85.092 180.083,85.186 180.214 C 85.355 180.448,86.417 180.978,86.902 181.070 C 87.070 181.101,87.400 181.219,87.635 181.330 C 88.381 181.683,88.894 181.848,89.098 181.800 C 89.207 181.774,89.513 181.853,89.779 181.976 C 90.900 182.494,93.218 183.246,93.693 183.246 C 93.879 183.246,94.031 183.327,94.031 183.425 C 94.031 183.523,94.366 183.587,94.775 183.567 C 95.184 183.546,95.566 183.607,95.625 183.702 C 95.684 183.797,96.014 183.874,96.360 183.874 C 96.705 183.874,96.942 183.949,96.885 184.040 C 96.829 184.132,97.072 184.228,97.426 184.255 C 97.780 184.282,98.457 184.404,98.930 184.525 C 99.403 184.647,100.073 184.793,100.419 184.849 C 100.764 184.906,101.188 185.005,101.361 185.070 C 101.534 185.134,102.005 185.211,102.408 185.241 C 103.783 185.343,105.445 185.604,105.550 185.735 C 105.879 186.146,125.026 186.186,125.026 185.776 C 125.026 185.650,125.563 185.591,127.061 185.555 C 127.546 185.544,128.003 185.437,128.076 185.318 C 128.150 185.200,128.508 185.128,128.872 185.160 C 129.237 185.191,129.634 185.155,129.756 185.080 C 129.878 185.004,130.372 184.920,130.853 184.891 C 131.334 184.863,131.728 184.776,131.728 184.698 C 131.728 184.620,132.220 184.491,132.822 184.411 C 133.424 184.332,134.028 184.174,134.165 184.060 C 134.330 183.923,134.463 183.935,134.563 184.096 C 134.675 184.277,134.751 184.275,134.868 184.086 C 134.954 183.947,135.272 183.819,135.575 183.802 C 135.878 183.784,136.125 183.689,136.126 183.590 C 136.126 183.491,136.258 183.461,136.419 183.523 C 136.581 183.585,136.772 183.577,136.844 183.505 C 136.974 183.375,137.359 183.278,138.063 183.198 C 138.264 183.176,138.429 183.083,138.429 182.992 C 138.429 182.901,138.748 182.827,139.137 182.827 C 139.526 182.827,139.953 182.696,140.086 182.535 C 140.309 182.267,141.345 181.999,142.256 181.974 C 142.460 181.969,142.572 181.876,142.505 181.767 C 142.438 181.659,142.666 181.571,143.012 181.571 C 143.357 181.571,143.694 181.484,143.760 181.377 C 143.825 181.271,144.349 181.028,144.924 180.837 C 145.498 180.646,145.969 180.409,145.969 180.309 C 145.969 180.210,146.157 180.165,146.387 180.209 C 146.842 180.297,147.924 179.826,147.724 179.626 C 147.657 179.559,147.941 179.440,148.356 179.362 C 148.770 179.284,149.110 179.144,149.110 179.051 C 149.110 178.884,150.302 178.542,150.420 178.675 C 150.454 178.713,150.705 178.535,150.979 178.279 C 151.253 178.024,151.557 177.865,151.655 177.925 C 151.752 177.986,151.832 177.935,151.832 177.813 C 151.832 177.691,151.974 177.592,152.147 177.592 C 152.319 177.592,152.461 177.492,152.461 177.370 C 152.461 177.248,152.544 177.199,152.646 177.262 C 152.747 177.325,153.068 177.189,153.359 176.960 C 153.650 176.732,154.028 176.545,154.199 176.545 C 154.370 176.545,154.567 176.397,154.636 176.217 C 154.705 176.037,154.846 175.942,154.949 176.005 C 155.052 176.069,155.244 175.991,155.376 175.832 C 155.507 175.673,156.107 175.332,156.708 175.073 C 157.309 174.815,157.953 174.427,158.140 174.213 C 158.326 173.998,158.632 173.822,158.820 173.822 C 159.008 173.822,159.162 173.744,159.162 173.648 C 159.162 173.552,159.421 173.343,159.738 173.182 C 160.055 173.022,160.610 172.612,160.972 172.272 C 161.334 171.932,161.790 171.631,161.985 171.602 C 162.181 171.573,162.504 171.402,162.705 171.220 C 162.906 171.039,163.157 170.890,163.265 170.890 C 163.372 170.890,163.583 170.692,163.734 170.451 C 163.885 170.209,164.053 170.056,164.108 170.111 C 164.196 170.199,164.606 169.853,166.473 168.114 C 166.750 167.855,166.905 167.785,166.816 167.958 C 166.728 168.131,166.908 167.990,167.217 167.644 C 167.526 167.298,167.710 167.148,167.627 167.310 C 167.527 167.503,167.557 167.553,167.716 167.455 C 167.849 167.372,167.958 167.169,167.958 167.003 C 167.958 166.837,168.052 166.702,168.166 166.702 C 168.280 166.702,168.644 166.419,168.974 166.073 C 169.304 165.728,169.641 165.445,169.723 165.445 C 169.901 165.445,170.214 165.131,170.828 164.335 C 171.078 164.012,171.334 163.750,171.398 163.753 C 171.688 163.766,172.147 163.496,172.147 163.312 C 172.147 163.036,173.316 161.885,173.596 161.885 C 173.720 161.885,173.822 161.761,173.822 161.610 C 173.822 161.459,174.599 160.535,175.550 159.557 C 176.500 158.578,177.409 157.527,177.571 157.220 C 177.732 156.914,177.960 156.723,178.078 156.795 C 178.207 156.875,178.238 156.789,178.157 156.579 C 178.036 156.263,178.224 156.132,178.691 156.206 C 178.777 156.219,178.848 156.080,178.848 155.896 C 178.848 155.509,179.552 154.447,180.250 153.780 C 180.516 153.526,180.733 153.220,180.733 153.099 C 180.733 152.978,180.827 152.880,180.942 152.880 C 181.058 152.880,181.152 152.738,181.152 152.565 C 181.152 152.393,181.240 152.251,181.347 152.251 C 181.455 152.251,181.603 152.061,181.676 151.829 C 181.751 151.594,181.912 151.470,182.040 151.550 C 182.183 151.638,182.224 151.572,182.149 151.376 C 182.080 151.196,182.200 150.936,182.427 150.772 C 182.647 150.613,182.827 150.409,182.827 150.319 C 182.827 150.018,185.205 146.178,185.391 146.178 C 185.492 146.178,185.516 146.084,185.445 145.969 C 185.374 145.853,185.415 145.759,185.537 145.759 C 185.659 145.759,185.759 145.618,185.759 145.445 C 185.759 145.272,185.859 145.131,185.981 145.131 C 186.103 145.131,186.150 145.045,186.085 144.940 C 185.928 144.686,186.178 144.059,186.386 144.187 C 186.476 144.243,186.598 144.101,186.658 143.872 C 186.731 143.595,186.686 143.501,186.525 143.594 C 186.392 143.670,186.488 143.505,186.740 143.227 C 187.113 142.816,187.616 141.876,187.739 141.361 C 187.752 141.304,187.881 141.045,188.025 140.785 C 188.169 140.526,188.213 140.311,188.123 140.308 C 188.032 140.304,188.123 140.205,188.325 140.088 C 188.526 139.971,188.691 139.738,188.691 139.571 C 188.691 139.404,188.780 139.267,188.888 139.267 C 188.997 139.267,189.051 139.086,189.008 138.865 C 188.966 138.643,189.071 138.409,189.243 138.343 C 189.415 138.277,189.490 138.117,189.411 137.989 C 189.331 137.860,189.377 137.686,189.512 137.602 C 189.648 137.518,189.775 137.246,189.793 136.997 C 189.812 136.748,189.902 136.545,189.992 136.545 C 190.083 136.545,190.157 136.350,190.157 136.113 C 190.157 135.841,190.246 135.737,190.399 135.832 C 190.540 135.919,190.584 135.889,190.505 135.761 C 190.430 135.641,190.527 135.178,190.719 134.734 C 191.122 133.804,191.149 133.724,191.336 132.880 C 191.413 132.534,191.534 132.204,191.605 132.147 C 191.746 132.033,192.249 130.296,192.409 129.372 C 192.463 129.055,192.586 128.796,192.682 128.796 C 192.777 128.796,192.819 128.607,192.775 128.377 C 192.731 128.147,192.767 127.958,192.857 127.958 C 193.018 127.958,193.053 127.803,193.111 126.806 C 193.128 126.518,193.224 126.283,193.325 126.283 C 193.425 126.283,193.508 126.113,193.508 125.906 C 193.508 125.698,193.621 125.416,193.759 125.277 C 193.949 125.088,193.950 125.026,193.764 125.026 C 193.585 125.026,193.575 124.876,193.728 124.474 C 193.844 124.170,193.987 123.581,194.047 123.165 C 194.107 122.749,194.213 122.267,194.283 122.094 C 194.526 121.488,194.583 121.138,194.700 119.533 C 194.765 118.643,194.888 117.957,194.973 118.010 C 195.058 118.063,195.141 117.572,195.156 116.919 C 195.171 116.266,195.266 115.679,195.366 115.614 C 195.467 115.550,195.524 114.838,195.492 114.031 C 195.460 113.225,195.530 112.448,195.648 112.304 C 195.777 112.147,195.782 112.042,195.663 112.042 C 195.553 112.042,195.462 111.901,195.462 111.728 C 195.462 111.555,195.538 111.414,195.630 111.414 C 195.905 111.414,195.624 99.010,195.342 98.728 C 195.257 98.642,195.292 98.446,195.420 98.292 C 195.584 98.095,195.588 97.931,195.434 97.746 C 195.313 97.600,195.185 96.901,195.150 96.193 C 195.115 95.484,195.014 94.949,194.925 95.004 C 194.837 95.058,194.757 94.839,194.747 94.515 C 194.737 94.191,194.699 93.691,194.661 93.403 C 194.624 93.115,194.567 92.484,194.535 92.001 C 194.504 91.518,194.411 91.164,194.329 91.214 C 194.171 91.312,193.920 89.992,193.878 88.848 C 193.865 88.474,193.776 88.168,193.681 88.168 C 193.586 88.168,193.508 87.885,193.508 87.539 C 193.508 87.194,193.434 86.911,193.344 86.911 C 193.254 86.911,193.159 86.657,193.134 86.347 C 193.108 86.037,192.981 85.717,192.852 85.637 C 192.722 85.557,192.679 85.391,192.755 85.268 C 192.831 85.144,192.807 84.874,192.700 84.668 C 192.353 83.996,191.754 81.790,191.811 81.391 C 191.842 81.177,191.775 81.058,191.664 81.127 C 191.550 81.197,191.398 80.835,191.319 80.308 C 191.241 79.789,191.089 79.418,190.981 79.485 C 190.874 79.551,190.785 79.386,190.785 79.117 C 190.785 78.847,190.628 78.402,190.435 78.127 C 190.242 77.852,190.195 77.695,190.330 77.779 C 190.465 77.862,190.576 77.839,190.576 77.726 C 190.576 77.614,190.505 77.490,190.419 77.452 C 190.186 77.349,189.130 75.153,189.049 74.604 C 189.010 74.344,188.867 74.019,188.730 73.882 C 188.593 73.745,188.482 73.472,188.482 73.274 C 188.482 73.076,188.407 72.883,188.315 72.845 C 188.046 72.732,187.225 71.018,187.225 70.569 C 187.225 70.343,187.131 70.157,187.016 70.157 C 186.901 70.157,186.806 70.016,186.806 69.843 C 186.806 69.670,186.706 69.529,186.584 69.529 C 186.463 69.529,186.421 69.435,186.492 69.319 C 186.563 69.204,186.533 69.110,186.424 69.110 C 186.316 69.110,185.982 68.592,185.682 67.958 C 185.382 67.325,185.041 66.806,184.924 66.806 C 184.808 66.806,184.712 66.615,184.712 66.381 C 184.712 66.147,184.571 65.901,184.399 65.835 C 184.227 65.769,184.138 65.631,184.202 65.528 C 184.266 65.425,184.213 65.340,184.084 65.340 C 183.955 65.340,183.897 65.263,183.955 65.169 C 184.014 65.075,183.852 64.769,183.597 64.488 C 183.342 64.208,183.135 63.838,183.138 63.665 C 183.142 63.492,182.886 63.080,182.571 62.748 C 182.256 62.417,182.058 62.049,182.131 61.930 C 182.207 61.807,182.161 61.779,182.022 61.865 C 181.889 61.947,181.780 61.903,181.780 61.768 C 181.780 61.526,180.954 60.432,180.111 59.559 C 179.877 59.317,179.686 59.010,179.686 58.878 C 179.686 58.747,179.586 58.639,179.464 58.639 C 179.342 58.639,179.301 58.545,179.372 58.429 C 179.443 58.314,179.401 58.220,179.279 58.220 C 179.157 58.220,179.081 58.102,179.110 57.958 C 179.139 57.814,179.037 57.722,178.885 57.754 C 178.732 57.786,178.665 57.719,178.735 57.606 C 178.804 57.493,178.623 57.244,178.331 57.053 C 178.040 56.862,177.801 56.585,177.801 56.438 C 177.801 56.291,177.660 56.116,177.487 56.050 C 177.314 55.984,177.173 55.779,177.173 55.596 C 177.173 55.413,177.079 55.321,176.963 55.393 C 176.848 55.464,176.754 55.375,176.754 55.196 C 176.754 55.016,176.658 54.869,176.540 54.869 C 176.422 54.869,176.220 54.635,176.089 54.350 C 175.959 54.064,175.678 53.775,175.466 53.707 C 175.253 53.640,175.079 53.449,175.079 53.284 C 175.079 53.119,174.939 52.984,174.768 52.984 C 174.598 52.984,174.399 52.749,174.327 52.461 C 174.255 52.173,174.068 51.937,173.911 51.937 C 173.755 51.937,173.525 51.746,173.400 51.512 C 173.275 51.279,173.081 51.145,172.969 51.214 C 172.856 51.283,172.790 51.250,172.822 51.141 C 172.895 50.889,171.607 49.634,171.276 49.634 C 171.140 49.634,171.089 49.574,171.162 49.501 C 171.327 49.336,170.941 48.586,170.691 48.586 C 170.484 48.586,169.887 48.101,168.308 46.649 C 167.713 46.102,167.149 45.654,167.054 45.654 C 166.803 45.654,166.283 45.096,166.413 44.966 C 166.474 44.905,166.327 44.792,166.086 44.716 C 165.845 44.640,165.699 44.495,165.762 44.394 C 165.824 44.293,165.684 44.247,165.451 44.292 C 165.212 44.338,165.026 44.262,165.026 44.118 C 165.026 43.802,164.269 43.130,164.101 43.298 C 164.034 43.366,163.979 43.311,163.979 43.176 C 163.979 43.042,163.832 42.932,163.653 42.932 C 163.473 42.932,163.380 42.844,163.446 42.738 C 163.512 42.631,163.353 42.476,163.092 42.393 C 162.831 42.311,162.467 42.070,162.282 41.859 C 162.098 41.647,161.901 41.520,161.845 41.576 C 161.789 41.632,161.572 41.489,161.362 41.258 C 161.153 41.027,160.860 40.838,160.710 40.838 C 160.560 40.838,160.198 40.598,159.905 40.305 C 159.612 40.011,159.370 39.847,159.369 39.938 C 159.367 40.030,159.296 40.003,159.211 39.879 C 159.127 39.755,158.563 39.386,157.958 39.060 C 157.353 38.734,156.859 38.396,156.859 38.308 C 156.859 38.220,156.570 38.085,156.216 38.007 C 155.863 37.930,155.521 37.728,155.456 37.560 C 155.392 37.391,155.209 37.303,155.052 37.364 C 154.889 37.426,154.764 37.341,154.764 37.166 C 154.764 36.982,154.565 36.859,154.266 36.859 C 153.993 36.859,153.651 36.717,153.508 36.545 C 153.364 36.372,153.070 36.230,152.854 36.230 C 152.638 36.230,152.461 36.131,152.461 36.009 C 152.461 35.887,152.366 35.845,152.251 35.916 C 152.136 35.987,152.042 35.946,152.042 35.824 C 152.042 35.702,151.901 35.602,151.728 35.602 C 151.555 35.602,151.414 35.502,151.414 35.380 C 151.414 35.258,151.326 35.213,151.219 35.279 C 151.111 35.345,150.965 35.304,150.892 35.187 C 150.820 35.070,150.595 34.974,150.394 34.974 C 150.192 34.974,149.820 34.782,149.568 34.547 C 149.316 34.312,149.110 34.180,149.110 34.253 C 149.110 34.327,148.775 34.189,148.365 33.947 C 147.955 33.706,147.444 33.508,147.228 33.508 C 147.013 33.508,146.712 33.390,146.559 33.246 C 146.407 33.102,146.054 32.952,145.774 32.912 C 145.495 32.873,145.071 32.719,144.832 32.571 C 144.419 32.314,143.402 32.010,143.113 32.056 C 143.039 32.068,142.921 31.998,142.851 31.901 C 142.655 31.632,140.088 30.771,139.874 30.903 C 139.771 30.967,139.686 30.920,139.686 30.798 C 139.686 30.676,139.497 30.576,139.267 30.576 C 139.037 30.576,138.847 30.458,138.845 30.314 C 138.843 30.122,138.793 30.129,138.661 30.338 C 138.539 30.531,138.454 30.546,138.401 30.386 C 138.358 30.256,137.863 30.102,137.302 30.044 C 136.740 29.986,136.176 29.872,136.046 29.790 C 135.917 29.707,135.764 29.631,135.707 29.620 C 134.602 29.415,134.004 29.234,133.906 29.076 C 133.834 28.960,133.664 28.981,133.489 29.125 C 133.277 29.302,133.194 29.305,133.194 29.136 C 133.194 29.006,132.917 28.901,132.578 28.901 C 132.239 28.901,131.903 28.805,131.831 28.689 C 131.759 28.572,131.447 28.486,131.138 28.498 C 130.829 28.509,130.058 28.408,129.424 28.274 C 128.791 28.140,127.848 27.996,127.330 27.954 C 126.812 27.912,126.058 27.807,125.654 27.722 C 124.426 27.460,123.517 27.423,115.864 27.325 C 111.804 27.272,108.482 27.309,108.482 27.408 M118.050 67.968 C 127.191 70.041,127.279 82.308,118.167 84.200 C 111.451 85.594,105.941 82.040,105.890 76.280 C 105.835 70.083,111.202 66.414,118.050 67.968 M94.271 75.276 C 97.250 75.907,98.782 77.246,99.840 80.141 C 100.335 81.495,100.411 114.588,99.926 117.277 C 97.556 130.399,90.366 136.126,76.261 136.126 C 72.418 136.126,66.141 135.258,65.455 134.632 C 65.346 134.532,65.114 134.450,64.939 134.450 C 63.193 134.450,58.634 130.869,57.609 128.691 C 55.429 124.062,56.909 118.463,61.036 115.724 C 62.485 114.762,62.690 114.778,63.727 115.936 C 65.090 117.460,67.142 118.808,69.424 119.679 C 73.288 121.156,78.358 120.256,80.028 117.797 C 81.437 115.723,81.485 115.084,81.642 96.649 L 81.780 80.314 82.350 79.154 C 84.096 75.603,88.718 74.099,94.271 75.276 M159.741 88.897 C 163.157 89.626,164.441 90.068,167.440 91.548 C 176.415 95.978,180.921 107.773,178.069 119.372 C 177.885 120.120,177.655 120.823,177.559 120.932 C 177.462 121.041,177.382 121.247,177.382 121.389 C 177.382 123.783,172.367 129.978,168.525 132.329 C 155.958 140.021,137.368 135.921,131.611 124.188 C 130.379 121.678,130.354 121.617,129.943 120.105 C 129.755 119.414,129.514 118.560,129.408 118.207 C 128.435 114.962,128.812 108.234,130.229 103.560 C 133.425 93.023,147.141 86.208,159.741 88.897 M119.786 89.358 C 121.954 90.058,123.484 91.975,123.969 94.598 C 124.319 96.489,124.259 128.362,123.904 129.874 C 122.972 133.831,120.837 135.180,115.497 135.182 C 110.824 135.184,109.144 134.566,107.729 132.325 C 106.435 130.275,106.492 131.220,106.492 111.937 L 106.492 94.346 107.136 92.984 C 107.919 91.328,109.448 89.872,110.915 89.385 C 112.413 88.887,118.275 88.869,119.786 89.358 M152.263 102.230 C 151.406 102.326,150.610 102.500,150.494 102.616 C 150.378 102.732,150.137 102.828,149.958 102.828 C 149.780 102.829,149.226 103.100,148.727 103.430 C 141.739 108.066,142.922 119.373,150.666 121.959 C 151.794 122.336,155.699 122.413,156.649 122.077 C 157.062 121.931,156.981 121.909,156.268 121.975 C 152.061 122.363,148.486 118.979,148.483 114.607 C 148.481 112.595,148.641 112.476,149.336 113.969 C 151.131 117.825,156.378 119.934,160.421 118.425 C 160.938 118.232,161.537 118.063,161.752 118.050 C 162.003 118.034,162.296 117.685,162.568 117.076 C 162.802 116.553,163.097 115.899,163.224 115.622 C 163.358 115.331,163.455 113.876,163.455 112.167 L 163.455 109.215 162.543 107.381 C 161.111 104.504,158.540 102.556,155.820 102.287 C 155.182 102.224,154.471 102.146,154.241 102.113 C 154.010 102.081,153.121 102.133,152.263 102.230 M159.524 107.479 C 161.644 109.471,160.993 112.886,158.276 114.021 C 155.602 115.139,152.441 112.664,152.967 109.863 L 153.108 109.110 154.348 109.110 C 155.675 109.110,157.068 108.162,157.068 107.260 C 157.068 106.275,158.366 106.391,159.524 107.479 M159.267 120.739 C 158.448 121.411,158.668 121.406,159.581 120.733 C 159.971 120.445,160.202 120.213,160.093 120.217 C 159.984 120.221,159.613 120.456,159.267 120.739 " stroke="none" fill="#048ccc" fill-rule="evenodd"></path><path id="path3" d="M54.696 54.680 C 54.298 55.316,54.537 55.401,54.950 54.771 C 55.141 54.479,55.224 54.241,55.134 54.241 C 55.044 54.241,54.846 54.438,54.696 54.680 M36.567 92.268 C 36.395 92.715,36.406 93.088,36.585 92.909 C 36.745 92.749,36.904 91.937,36.775 91.937 C 36.730 91.937,36.637 92.086,36.567 92.268 M35.602 99.768 C 35.602 100.082,35.688 100.286,35.793 100.221 C 36.003 100.091,35.976 99.572,35.748 99.343 C 35.668 99.263,35.602 99.454,35.602 99.768 M157.309 106.649 C 157.176 106.782,157.068 107.057,157.068 107.260 C 157.068 108.162,155.675 109.110,154.348 109.110 L 153.108 109.110 152.967 109.863 C 152.441 112.664,155.602 115.139,158.276 114.021 C 161.603 112.631,161.618 108.108,158.301 106.722 C 157.735 106.485,157.491 106.467,157.309 106.649 M148.483 114.607 C 148.487 120.038,153.942 123.632,158.523 121.223 C 160.111 120.387,162.855 117.450,161.518 118.016 C 156.715 120.052,151.336 118.265,149.336 113.969 C 148.641 112.476,148.481 112.595,148.483 114.607 M186.722 143.224 C 186.450 143.524,186.424 143.663,186.616 143.781 C 186.774 143.879,186.817 143.852,186.730 143.710 C 186.652 143.584,186.754 143.388,186.957 143.275 C 187.160 143.161,187.272 143.013,187.205 142.946 C 187.138 142.879,186.920 143.004,186.722 143.224 M179.298 154.930 L 178.805 155.707 179.365 155.124 C 179.673 154.803,179.895 154.453,179.858 154.347 C 179.821 154.240,179.569 154.503,179.298 154.930 M174.259 160.918 L 173.753 161.571 174.352 161.001 C 174.682 160.688,174.909 160.394,174.858 160.348 C 174.807 160.302,174.537 160.558,174.259 160.918 M59.732 163.881 C 60.045 164.211,60.339 164.438,60.385 164.387 C 60.431 164.335,60.174 164.066,59.815 163.788 L 59.162 163.282 59.732 163.881 M170.800 164.367 L 170.395 164.921 170.904 164.505 C 171.184 164.276,171.443 164.073,171.480 164.055 C 171.516 164.036,171.469 163.974,171.375 163.917 C 171.281 163.860,171.022 164.062,170.800 164.367 M78.541 177.312 C 78.549 177.526,80.000 178.227,80.000 178.018 C 80.000 177.891,79.689 177.701,78.691 177.214 C 78.605 177.172,78.537 177.216,78.541 177.312 M128.796 185.131 L 128.063 185.285 128.731 185.313 C 129.099 185.328,129.458 185.246,129.529 185.131 C 129.600 185.016,129.629 184.934,129.594 184.949 C 129.558 184.964,129.199 185.046,128.796 185.131 " stroke="none" fill="#048bc4" fill-rule="evenodd"></path><path id="path4" d="M113.089 67.838 C 112.801 67.922,113.791 67.990,115.288 67.990 C 116.785 67.990,117.775 67.922,117.487 67.838 C 117.199 67.754,116.209 67.686,115.288 67.686 C 114.366 67.686,113.377 67.754,113.089 67.838 M110.576 68.538 C 108.318 69.416,105.923 72.538,105.986 74.521 C 105.998 74.897,106.088 74.738,106.262 74.031 C 106.966 71.171,108.756 69.302,111.668 68.386 C 112.162 68.231,112.377 68.101,112.147 68.097 C 111.916 68.093,111.209 68.291,110.576 68.538 M119.073 68.438 C 123.457 70.004,125.894 74.774,124.282 78.633 C 124.103 79.061,123.993 79.518,124.037 79.649 C 124.252 80.295,124.817 77.677,124.817 76.033 C 124.817 72.029,122.244 68.681,118.775 68.171 C 118.109 68.073,118.148 68.108,119.073 68.438 M87.853 75.183 C 87.480 75.278,88.627 75.354,90.681 75.370 C 95.931 75.411,97.768 76.216,99.178 79.095 C 99.450 79.650,99.676 79.983,99.679 79.835 C 99.756 76.680,92.770 73.932,87.853 75.183 M105.816 76.021 C 105.816 76.539,105.857 76.751,105.907 76.492 C 105.957 76.233,105.957 75.809,105.907 75.550 C 105.857 75.291,105.816 75.503,105.816 76.021 M86.189 75.545 C 84.106 76.075,82.046 78.760,81.797 81.270 L 81.684 82.408 81.979 81.152 C 82.566 78.659,83.819 76.829,85.376 76.189 C 87.084 75.486,87.216 75.421,86.911 75.431 C 86.738 75.437,86.413 75.488,86.189 75.545 M105.986 77.715 C 105.822 84.665,120.344 87.011,123.690 80.576 C 124.130 79.731,123.933 79.871,123.149 80.963 C 120.165 85.118,111.170 85.277,107.762 81.236 C 107.066 80.410,106.636 79.482,106.267 78.010 C 106.014 77.004,106.004 76.992,105.986 77.715 M99.848 81.466 C 100.038 83.166,100.050 112.117,99.862 115.393 C 99.755 117.252,99.776 117.658,99.953 117.173 C 100.301 116.221,100.300 81.091,99.953 80.524 C 99.742 80.179,99.723 80.347,99.848 81.466 M150.890 88.501 C 140.650 89.532,132.723 95.516,130.018 104.255 C 129.792 104.983,129.640 105.675,129.680 105.793 C 129.719 105.911,129.964 105.299,130.224 104.433 C 133.515 93.476,144.786 87.278,158.534 88.864 C 159.453 88.970,159.559 88.954,159.058 88.788 C 158.397 88.570,152.327 88.356,150.890 88.501 M110.915 89.385 C 109.448 89.872,107.919 91.328,107.136 92.984 L 106.492 94.346 106.492 112.042 C 106.492 126.340,106.545 129.819,106.768 130.157 C 107.027 130.549,107.034 130.542,106.883 130.052 C 106.619 129.196,106.545 96.877,106.804 95.213 C 107.343 91.735,108.975 89.999,112.356 89.304 C 113.483 89.073,113.526 89.046,112.775 89.046 C 112.314 89.046,111.477 89.198,110.915 89.385 M118.429 89.293 C 121.143 89.803,122.629 91.064,123.511 93.603 C 123.843 94.562,123.951 94.740,123.870 94.197 C 123.449 91.379,120.646 88.940,117.934 89.031 C 117.299 89.052,117.381 89.095,118.429 89.293 M161.582 89.532 C 169.321 91.549,175.103 96.785,177.368 103.830 C 177.637 104.668,177.906 105.306,177.964 105.247 C 178.023 105.189,177.859 104.502,177.600 103.722 C 175.468 97.299,170.634 92.451,163.874 89.960 C 162.974 89.628,160.502 89.016,160.105 89.026 C 159.874 89.033,160.539 89.260,161.582 89.532 M124.079 112.147 C 124.079 121.476,124.105 125.324,124.136 120.696 C 124.167 116.069,124.167 108.435,124.136 103.733 C 124.105 99.031,124.079 102.817,124.079 112.147 M151.773 101.984 C 141.852 103.789,141.119 119.191,150.808 122.246 C 152.064 122.642,155.879 122.747,156.477 122.402 C 156.714 122.265,156.015 122.223,154.345 122.273 C 146.202 122.515,141.570 114.627,145.398 107.038 C 146.312 105.226,148.923 102.831,149.988 102.828 C 150.182 102.828,150.395 102.742,150.459 102.637 C 150.714 102.225,154.369 102.011,156.300 102.297 C 156.953 102.393,157.085 102.371,156.823 102.207 C 156.345 101.907,153.004 101.760,151.773 101.984 M157.277 102.498 C 157.277 102.547,157.772 102.815,158.377 103.094 C 160.135 103.904,161.499 105.291,162.487 107.274 C 162.962 108.226,163.351 108.870,163.351 108.704 C 163.351 108.007,161.924 105.645,160.875 104.604 C 159.722 103.460,157.277 102.029,157.277 102.498 M178.010 105.706 C 178.010 105.830,178.152 106.670,178.325 107.573 C 178.978 110.988,178.654 116.655,177.603 120.196 C 177.401 120.875,177.471 121.437,177.680 120.815 C 178.875 117.266,179.282 111.254,178.585 107.474 C 178.302 105.944,178.010 105.046,178.010 105.706 M129.355 106.639 C 129.175 107.361,128.932 110.068,129.057 109.948 C 129.196 109.814,129.661 106.345,129.554 106.238 C 129.510 106.194,129.421 106.375,129.355 106.639 M163.455 112.251 C 163.455 114.247,163.524 115.240,163.647 115.020 C 163.753 114.831,163.839 113.585,163.839 112.251 C 163.839 110.917,163.753 109.671,163.647 109.483 C 163.524 109.263,163.455 110.256,163.455 112.251 M81.383 112.932 C 81.060 117.282,79.560 119.395,76.285 120.112 C 75.348 120.317,75.230 120.381,75.755 120.397 C 77.904 120.466,80.255 118.557,81.091 116.066 C 81.457 114.975,81.881 110.995,81.631 110.995 C 81.574 110.995,81.461 111.866,81.383 112.932 M128.863 112.251 C 128.863 113.000,128.901 113.306,128.947 112.932 C 128.994 112.558,128.994 111.945,128.947 111.571 C 128.901 111.196,128.863 111.503,128.863 112.251 M129.128 116.114 C 129.190 117.029,129.324 117.925,129.428 118.104 C 129.636 118.463,129.488 116.696,129.193 115.288 C 129.068 114.694,129.050 114.934,129.128 116.114 M60.998 115.735 C 59.128 117.004,57.318 119.563,57.069 121.290 C 56.981 121.899,57.007 121.873,57.269 121.092 C 58.008 118.884,59.965 116.484,61.825 115.505 L 62.603 115.096 63.814 116.287 C 66.338 118.769,69.621 120.475,71.713 120.394 C 72.166 120.376,71.984 120.291,71.099 120.106 C 70.408 119.962,69.654 119.771,69.424 119.682 C 67.102 118.782,65.090 117.459,63.727 115.936 C 62.698 114.786,62.425 114.766,60.998 115.735 M163.051 115.916 C 162.278 118.247,160.312 120.525,158.249 121.480 C 157.542 121.807,157.086 122.079,157.237 122.085 C 159.028 122.148,163.808 117.154,163.289 115.762 C 163.226 115.594,163.139 115.651,163.051 115.916 M99.364 118.901 C 99.017 120.974,97.933 124.158,96.921 126.073 C 96.586 126.707,96.466 127.037,96.655 126.806 C 97.831 125.367,100.300 118.115,99.614 118.115 C 99.549 118.115,99.436 118.469,99.364 118.901 M129.650 118.863 C 129.641 119.102,129.783 119.762,129.966 120.329 C 130.148 120.897,130.339 121.493,130.389 121.653 C 130.440 121.813,130.527 121.899,130.583 121.842 C 130.673 121.753,130.412 120.746,129.835 118.953 C 129.689 118.500,129.664 118.488,129.650 118.863 M73.144 120.569 C 73.463 120.617,73.934 120.616,74.191 120.566 C 74.449 120.517,74.188 120.477,73.613 120.479 C 73.037 120.480,72.826 120.521,73.144 120.569 M176.804 122.327 C 176.549 122.931,176.378 123.463,176.425 123.510 C 176.545 123.630,177.405 121.639,177.330 121.414 C 177.296 121.312,177.059 121.722,176.804 122.327 M56.676 122.565 C 55.974 125.185,57.201 128.836,59.587 131.227 C 61.038 132.681,64.299 134.623,64.934 134.411 C 65.063 134.368,64.618 134.108,63.945 133.833 C 59.250 131.913,56.888 128.637,56.877 124.031 C 56.872 121.927,56.864 121.866,56.676 122.565 M130.790 122.506 C 131.520 124.912,134.692 129.099,137.348 131.165 C 139.380 132.745,144.346 135.110,145.542 135.067 C 145.719 135.061,145.095 134.789,144.156 134.463 C 138.346 132.448,133.388 128.124,131.412 123.351 C 130.967 122.275,130.547 121.704,130.790 122.506 M175.691 124.639 C 174.218 127.532,170.544 131.134,167.466 132.704 C 166.908 132.989,166.502 133.273,166.564 133.335 C 166.869 133.640,170.021 131.467,172.087 129.529 C 173.928 127.801,176.598 124.172,176.269 123.843 C 176.206 123.780,175.946 124.139,175.691 124.639 M95.173 128.630 C 92.959 131.407,88.830 134.043,85.577 134.758 C 85.247 134.830,85.030 134.942,85.094 135.007 C 86.150 136.062,94.322 130.780,95.980 127.971 C 96.552 127.002,96.319 127.193,95.173 128.630 M123.659 129.895 C 123.155 132.289,121.725 133.852,119.277 134.688 C 118.564 134.932,118.384 135.054,118.723 135.064 C 120.648 135.120,123.432 132.382,123.880 129.990 C 124.059 129.036,123.859 128.950,123.659 129.895 M107.021 130.853 C 106.991 132.380,110.686 135.373,112.176 135.028 C 112.422 134.971,112.258 134.876,111.728 134.770 C 109.904 134.406,108.366 133.247,107.552 131.623 C 107.263 131.047,107.024 130.700,107.021 130.853 M164.503 134.039 C 163.696 134.362,162.754 134.693,162.408 134.774 C 162.063 134.855,161.880 134.958,162.002 135.004 C 162.370 135.141,166.283 133.772,166.283 133.505 C 166.283 133.346,166.072 133.409,164.503 134.039 M65.445 134.629 C 65.560 134.743,66.031 134.893,66.492 134.961 C 67.054 135.045,67.192 135.026,66.911 134.904 C 66.168 134.581,65.217 134.402,65.445 134.629 M67.749 135.264 C 67.979 135.363,68.780 135.500,69.529 135.568 C 70.494 135.656,70.677 135.639,70.157 135.513 C 69.020 135.235,67.260 135.054,67.749 135.264 M82.946 135.316 C 81.386 135.575,81.283 135.794,82.809 135.609 C 84.116 135.450,85.342 135.094,84.503 135.116 C 84.272 135.122,83.572 135.212,82.946 135.316 M113.979 135.234 C 114.757 135.274,116.029 135.274,116.806 135.234 C 117.584 135.194,116.948 135.161,115.393 135.161 C 113.838 135.161,113.202 135.194,113.979 135.234 M146.283 135.264 C 146.513 135.363,147.220 135.501,147.853 135.571 C 148.581 135.651,148.811 135.634,148.478 135.524 C 147.714 135.272,145.766 135.041,146.283 135.264 M160.012 135.307 C 159.501 135.407,158.982 135.537,158.860 135.595 C 158.499 135.768,160.904 135.460,161.361 135.275 L 161.780 135.105 161.361 135.115 C 161.131 135.120,160.524 135.207,160.012 135.307 M71.959 135.957 C 73.002 136.142,79.388 136.139,80.628 135.953 C 81.147 135.875,79.224 135.812,76.357 135.812 C 73.489 135.812,71.510 135.877,71.959 135.957 M149.865 135.957 C 150.314 136.036,152.094 136.102,153.822 136.102 C 155.550 136.102,157.330 136.036,157.779 135.957 C 158.228 135.877,156.447 135.812,153.822 135.812 C 151.197 135.812,149.416 135.877,149.865 135.957 " stroke="none" fill="#74c4e4" fill-rule="evenodd"></path></g></svg>